<svg width="24" height="24" viewBox="0 0 24 24" fill="none" xmlns="http://www.w3.org/2000/svg">
<path d="M4.615 19C4.155 19 3.771 18.846 3.463 18.538C3.155 18.23 3.00067 17.8457 3 17.385V6.615C3 6.155 3.15433 5.771 3.463 5.463C3.77167 5.155 4.15567 5.00067 4.615 5H19.385C19.845 5 20.229 5.15433 20.537 5.463C20.845 5.77167 20.9993 6.15567 21 6.615V17.385C21 17.845 20.846 18.229 20.538 18.537C20.23 18.845 19.8457 18.9993 19.385 19H4.615ZM12 12.115L4 6.885V17.385C4 17.5643 4.05767 17.7117 4.173 17.827C4.28833 17.9423 4.43567 18 4.615 18H19.385C19.5643 18 19.7117 17.9423 19.827 17.827C19.9423 17.7117 20 17.5643 20 17.385V6.885L12 12.115ZM12 11L19.692 6H4.308L12 11ZM4 6.885V6V17.385C4 17.5643 4.05767 17.7117 4.173 17.827C4.28833 17.9423 4.43567 18 4.615 18H4V6.885Z" fill="#0F5EFE"/>
</svg>
