<svg width="24" height="24" viewBox="0 0 24 24" fill="none" xmlns="http://www.w3.org/2000/svg">
<path d="M22.8431 11.8481C22.8113 11.7769 22.0444 10.0772 20.3278 8.36063C18.7378 6.77063 16.0031 4.875 12 4.875C7.99689 4.875 5.2622 6.77063 3.6722 8.36063C1.95564 10.0772 1.18877 11.7769 1.15689 11.8481C1.13602 11.8962 1.12524 11.9481 1.12524 12.0005C1.12524 12.0529 1.13602 12.1047 1.15689 12.1528C1.18877 12.225 1.95564 13.9237 3.6722 15.6403C5.26595 17.2341 7.99783 19.125 12 19.125C16.0022 19.125 18.7378 17.2303 20.3278 15.6403C22.0444 13.9237 22.8113 12.225 22.8431 12.1528C22.864 12.1047 22.8748 12.0529 22.8748 12.0005C22.8748 11.9481 22.864 11.8962 22.8431 11.8481ZM19.7775 15.1294C17.6147 17.2856 14.9963 18.375 11.9963 18.375C8.99627 18.375 6.38158 17.2828 4.21502 15.1294C3.29316 14.21 2.51789 13.1546 1.91627 12C2.51901 10.8451 3.29556 9.7897 4.21877 8.87063C6.38533 6.71719 9.00002 5.625 12 5.625C15 5.625 17.6147 6.71719 19.7813 8.87063C20.7044 9.7898 21.4809 10.8452 22.0838 12C21.481 13.1549 20.7045 14.2103 19.7813 15.1294H19.7775ZM12 7.875C11.1842 7.875 10.3866 8.11693 9.70829 8.57019C9.02994 9.02345 8.50123 9.66769 8.18901 10.4214C7.8768 11.1752 7.79511 12.0046 7.95428 12.8047C8.11344 13.6049 8.50631 14.3399 9.0832 14.9168C9.66009 15.4937 10.3951 15.8866 11.1953 16.0457C11.9954 16.2049 12.8248 16.1232 13.5786 15.811C14.3323 15.4988 14.9766 14.9701 15.4298 14.2917C15.8831 13.6134 16.125 12.8158 16.125 12C16.1238 10.9064 15.6888 9.85787 14.9155 9.08455C14.1421 8.31124 13.0937 7.87624 12 7.875ZM12 15.375C11.3325 15.375 10.68 15.1771 10.125 14.8062C9.56995 14.4354 9.13737 13.9083 8.88192 13.2916C8.62648 12.6749 8.55964 11.9963 8.68987 11.3416C8.82009 10.6869 9.14153 10.0855 9.61353 9.61351C10.0855 9.14151 10.6869 8.82007 11.3416 8.68985C11.9963 8.55962 12.6749 8.62646 13.2916 8.88191C13.9083 9.13735 14.4354 9.56993 14.8062 10.125C15.1771 10.68 15.375 11.3325 15.375 12C15.375 12.8951 15.0194 13.7535 14.3865 14.3865C13.7536 15.0194 12.8951 15.375 12 15.375Z" fill="#0F5EFE"/>
</svg>
