<svg width="60" height="19" viewBox="0 0 60 19" fill="none" xmlns="http://www.w3.org/2000/svg">
<g clip-path="url(#clip0_9_129)">
<path d="M58.1311 11.6117L59.7957 12.6826C59.2554 13.4505 57.9633 14.768 55.7294 14.768C52.9553 14.768 50.8894 12.6967 50.8894 10.0617C50.8894 7.25773 52.9772 5.35547 55.4958 5.35547C58.0289 5.35547 59.2699 7.29992 59.6716 8.34967L59.8906 8.88517L53.3642 11.4919C53.8606 12.436 54.6345 12.9151 55.7294 12.9151C56.8245 12.9151 57.5836 12.3937 58.1311 11.6117ZM53.0138 9.91389L57.372 8.16656C57.131 7.58186 56.4157 7.16624 55.5614 7.16624C54.4738 7.16624 52.9627 8.09622 53.0138 9.91389Z" fill="#FF302F"/>
<path d="M47.7429 0.557617H49.8453V14.3383H47.7429V0.557617Z" fill="#20B15A"/>
<path d="M44.4287 5.72172H46.4582V14.0916C46.4582 17.5648 44.3338 18.995 41.8225 18.995C39.4573 18.995 38.0338 17.4592 37.5008 16.2122L39.3624 15.4653C39.6981 16.2332 40.5085 17.1422 41.8225 17.1422C43.4358 17.1422 44.4287 16.1769 44.4287 14.3734V13.6971H44.3557C43.8738 14.2606 42.954 14.7679 41.786 14.7679C39.3477 14.7679 37.1138 12.7177 37.1138 10.0758C37.1138 7.41962 39.3477 5.34839 41.786 5.34839C42.9468 5.34839 43.8738 5.84861 44.3557 6.39814H44.4287V5.72172ZM44.5746 10.0758C44.5746 8.41304 43.4285 7.20123 41.9685 7.20123C40.4938 7.20123 39.2528 8.41304 39.2528 10.0758C39.2528 11.7172 40.4938 12.9079 41.9685 12.9079C43.4287 12.915 44.5747 11.7172 44.5747 10.0758" fill="#3686F7"/>
<path d="M25.5721 10.0406C25.5721 12.7531 23.3821 14.7469 20.6956 14.7469C18.0092 14.7469 15.8191 12.7461 15.8191 10.0406C15.8191 7.31414 18.0092 5.32739 20.6956 5.32739C23.3821 5.32739 25.5721 7.31414 25.5721 10.0406ZM23.4405 10.0406C23.4405 8.34986 22.1702 7.18724 20.6956 7.18724C19.221 7.18724 17.9507 8.34986 17.9507 10.0406C17.9507 11.7174 19.221 12.894 20.6956 12.894C22.1703 12.894 23.4405 11.7174 23.4405 10.0406Z" fill="#FF302F"/>
<path d="M36.2233 10.0617C36.2233 12.7742 34.0331 14.7679 31.3467 14.7679C28.6602 14.7679 26.4702 12.7741 26.4702 10.0617C26.4702 7.3352 28.6602 5.35547 31.3467 5.35547C34.0331 5.35547 36.2233 7.32819 36.2233 10.0617ZM34.0842 10.0617C34.0842 8.37093 32.814 7.20831 31.3394 7.20831C29.8648 7.20831 28.5945 8.37093 28.5945 10.0617C28.5945 11.7385 29.8648 12.9151 31.3394 12.9151C32.8213 12.9151 34.0842 11.7314 34.0842 10.0617Z" fill="#FFBA40"/>
<path d="M7.80349 12.7039C4.74466 12.7039 2.35028 10.3225 2.35028 7.37053C2.35028 4.41864 4.74466 2.0373 7.80349 2.0373C9.45337 2.0373 10.6578 2.6643 11.5484 3.46751L13.0159 2.05144C11.7749 0.903071 10.1177 0.0292969 7.80349 0.0292969C3.61321 0.02941 0.0871582 3.3267 0.0871582 7.37053C0.0871582 11.4146 3.61321 14.7118 7.80349 14.7118C10.0666 14.7118 11.7749 13.9932 13.1108 12.6546C14.4832 11.33 14.9066 9.47003 14.9066 7.96236C14.9066 7.4903 14.8482 7.00422 14.7825 6.64492H7.80349V8.6035H12.7749C12.6289 9.82945 12.2274 10.6678 11.6361 11.2384C10.9207 11.936 9.78923 12.7039 7.80349 12.7039Z" fill="#3686F7"/>
</g>
<defs>
<clipPath id="clip0_9_129">
<rect width="60" height="19" fill="white"/>
</clipPath>
</defs>
</svg>
