<svg width="73" height="67" viewBox="0 0 73 67" fill="none" xmlns="http://www.w3.org/2000/svg">
<mask id="mask0_117_7863" style="mask-type:luminance" maskUnits="userSpaceOnUse" x="10" y="0" width="53" height="53">
<path d="M10.8267 0H62.6917V52.1566H10.8267V0Z" fill="white"/>
</mask>
<g mask="url(#mask0_117_7863)">
<mask id="mask1_117_7863" style="mask-type:luminance" maskUnits="userSpaceOnUse" x="10" y="0" width="53" height="53">
<path d="M18.7793 0H54.739C56.8479 0 58.8702 0.843923 60.3631 2.34343C61.8543 3.84293 62.6917 5.87667 62.6917 7.99735V44.1593C62.6917 46.2799 61.8543 48.3155 60.3631 49.815C58.8702 51.3145 56.8479 52.1566 54.739 52.1566H18.7793C16.6705 52.1566 14.6481 51.3145 13.1552 49.815C11.6641 48.3155 10.8267 46.2799 10.8267 44.1593V7.99735C10.8267 5.87667 11.6641 3.84293 13.1552 2.34343C14.6481 0.843923 16.6705 0 18.7793 0Z" fill="white"/>
</mask>
<g mask="url(#mask1_117_7863)">
<path d="M10.8267 0H62.6917V52.1566H10.8267V0Z" fill="#1DDF8C"/>
</g>
</g>
<mask id="mask2_117_7863" style="mask-type:luminance" maskUnits="userSpaceOnUse" x="16" y="14" width="41" height="14">
<path d="M16.9009 14.1855H56.5956V27.2265H16.9009V14.1855Z" fill="white"/>
</mask>
<g mask="url(#mask2_117_7863)">
<mask id="mask3_117_7863" style="mask-type:luminance" maskUnits="userSpaceOnUse" x="16" y="14" width="41" height="14">
<path d="M38.4053 14.4499L56.1834 20.1745C56.4139 20.2487 56.5688 20.4642 56.5688 20.7051C56.5688 20.9477 56.4139 21.1614 56.1834 21.2357L38.4053 26.9602C37.3355 27.3061 36.183 27.3061 35.1133 26.9602L17.3351 21.2357C17.1046 21.1614 16.9497 20.9477 16.9497 20.7051C16.9497 20.4642 17.1046 20.2487 17.3351 20.1745L35.1133 14.4499C36.183 14.1058 37.3355 14.1058 38.4053 14.4499Z" fill="white"/>
</mask>
<g mask="url(#mask3_117_7863)">
<path d="M15.6875 13.9193H57.808V27.4908H15.6875V13.9193Z" fill="white"/>
</g>
</g>
<mask id="mask4_117_7863" style="mask-type:luminance" maskUnits="userSpaceOnUse" x="23" y="24" width="16" height="17">
<path d="M23.1592 24.7834H38.8339V40.5463H23.1592V24.7834Z" fill="white"/>
</mask>
<g mask="url(#mask4_117_7863)">
<mask id="mask5_117_7863" style="mask-type:luminance" maskUnits="userSpaceOnUse" x="17" y="19" width="22" height="22">
<path d="M38.8519 30.2219L27.1733 40.8524L17.7817 30.4193L29.4604 19.7888L38.8519 30.2219Z" fill="white"/>
</mask>
<g mask="url(#mask5_117_7863)">
<mask id="mask6_117_7863" style="mask-type:luminance" maskUnits="userSpaceOnUse" x="23" y="24" width="16" height="17">
<path d="M23.3338 26.0512L26.2998 39.6119C26.3772 39.9632 26.633 40.2475 26.9751 40.3562C27.3155 40.4649 27.6883 40.3852 27.953 40.1425L38.0901 30.9137C38.3566 30.6728 38.4737 30.3088 38.398 29.9557C38.3242 29.6043 38.0685 29.32 37.7299 29.2077L24.6052 24.8921C24.2684 24.7816 23.8974 24.8613 23.6345 25.1004C23.3716 25.3394 23.2563 25.7016 23.3338 26.0512Z" fill="white"/>
</mask>
<g mask="url(#mask6_117_7863)">
<path d="M39.3724 29.7474L26.6529 41.3269L16.5933 30.1513L29.3128 18.5718L39.3724 29.7474Z" fill="white"/>
</g>
</g>
</g>
<mask id="mask7_117_7863" style="mask-type:luminance" maskUnits="userSpaceOnUse" x="34" y="24" width="17" height="17">
<path d="M34.6846 24.7834H50.3593V40.5463H34.6846V24.7834Z" fill="white"/>
</mask>
<g mask="url(#mask7_117_7863)">
<mask id="mask8_117_7863" style="mask-type:luminance" maskUnits="userSpaceOnUse" x="34" y="19" width="22" height="22">
<path d="M46.3507 40.827L34.5767 30.3016L43.8763 19.7815L55.6504 30.307L46.3507 40.827Z" fill="white"/>
</mask>
<g mask="url(#mask8_117_7863)">
<mask id="mask9_117_7863" style="mask-type:luminance" maskUnits="userSpaceOnUse" x="35" y="24" width="16" height="17">
<path d="M48.7965 24.8595L35.7096 29.2928C35.371 29.4087 35.1189 29.6967 35.0469 30.048C34.9748 30.4012 35.0955 30.7652 35.3638 31.0042L45.5837 40.1407C45.8521 40.3797 46.2249 40.4576 46.5652 40.3453C46.9038 40.2331 47.1595 39.9469 47.2315 39.5956L50.0787 26.0059C50.1508 25.6582 50.0337 25.296 49.7672 25.0587C49.5024 24.8215 49.1315 24.7454 48.7965 24.8595Z" fill="white"/>
</mask>
<g mask="url(#mask9_117_7863)">
<path d="M46.8767 41.2961L34.0527 29.8325L44.0133 18.5645L56.8373 30.0281L46.8767 41.2961Z" fill="white"/>
</g>
</g>
</g>
<mask id="mask10_117_7863" style="mask-type:luminance" maskUnits="userSpaceOnUse" x="27" y="29" width="20" height="12">
<path d="M27.1011 29.9213H46.4028V40.8253H27.1011V29.9213Z" fill="white"/>
</mask>
<g mask="url(#mask10_117_7863)">
<mask id="mask11_117_7863" style="mask-type:luminance" maskUnits="userSpaceOnUse" x="27" y="29" width="20" height="12">
<path d="M35.5832 30.4773L27.3298 39.5014C27.1263 39.7242 27.0723 40.0465 27.193 40.3236C27.3154 40.6025 27.5874 40.78 27.8881 40.78H45.6195C45.9202 40.78 46.1939 40.6025 46.3146 40.3236C46.4353 40.0465 46.3812 39.7242 46.1777 39.5014L37.9244 30.4773C37.6236 30.1477 37.1986 29.9611 36.7538 29.9611C36.309 29.9611 35.8858 30.1477 35.5832 30.4773Z" fill="white"/>
</mask>
<g mask="url(#mask11_117_7863)">
<path d="M47.3484 40.78H26.1558V29.1969H47.3484V40.78Z" fill="white"/>
</g>
</g>
<path d="M53.8315 29.3562V21.5218" stroke="white" stroke-width="2"/>
<mask id="mask12_117_7863" style="mask-type:luminance" maskUnits="userSpaceOnUse" x="52" y="29" width="4" height="4">
<path d="M52.5962 29.1932H55.0706V32.9945H52.5962V29.1932Z" fill="white"/>
</mask>
<g mask="url(#mask12_117_7863)">
<mask id="mask13_117_7863" style="mask-type:luminance" maskUnits="userSpaceOnUse" x="52" y="29" width="4" height="4">
<path d="M52.5962 30.8412C52.5962 30.7996 52.5962 30.7579 52.5962 30.7163C52.6376 30.3867 52.7763 30.1784 53.0014 30.0842C52.9708 29.5337 53.3958 29.1316 53.8136 29.3761C53.9018 29.2946 54.0009 29.2276 54.1323 29.2023C54.1702 29.2023 54.208 29.2023 54.2458 29.2023C54.5807 29.2765 54.8077 29.5898 54.7464 30.106C54.9193 30.2382 55.0904 30.4736 55.0688 30.8412C55.058 31.0314 54.9931 31.1636 54.9139 31.2795C54.9787 31.4008 55.031 31.533 55.031 31.7232C55.0328 32.1651 54.777 32.4602 54.4277 32.4675C54.3466 32.75 54.1936 32.9438 53.9324 32.9945C53.8946 32.9945 53.8568 32.9945 53.819 32.9945C53.5615 32.9384 53.3976 32.7554 53.3291 32.453C52.8933 32.4711 52.6196 31.8662 52.8123 31.37C52.7168 31.2523 52.6124 31.0839 52.5962 30.8412Z" fill="white"/>
</mask>
<g mask="url(#mask13_117_7863)">
<path d="M52.5962 32.9945V29.2041H55.0706V32.9945H52.5962Z" fill="white"/>
</g>
</g>
<path d="M7.13144 57.1192V63.5374C7.13144 64.1948 6.99817 64.7833 6.73525 65.3049C6.47052 65.8265 6.07433 66.2394 5.54667 66.5436C5.01722 66.8479 4.3581 67 3.56572 67C2.76793 67 2.10521 66.8551 1.57756 66.5653C1.04811 66.272 0.651915 65.8663 0.388988 65.3484C0.129663 64.8268 0 64.2237 0 63.5374V57.1192H2.26909V62.6826C2.26909 63.5519 2.34833 64.2074 2.50681 64.6457C2.66529 65.0803 3.01826 65.2977 3.56572 65.2977C4.11318 65.2977 4.46615 65.0803 4.62463 64.6457C4.78311 64.2074 4.86234 63.5519 4.86234 62.6826V57.1192H7.13144Z" fill="#1DDF8C"/>
<path d="M8.68018 66.761V59.3721H10.5891L10.7404 60.2341C11.0717 59.8629 11.4175 59.5876 11.7777 59.4083C12.1414 59.2254 12.5574 59.1331 13.0239 59.1331C13.6524 59.1331 14.1476 59.3268 14.5078 59.7126C14.868 60.0947 15.048 60.6362 15.048 61.3352V66.761H12.8582V61.9727C12.8582 61.6684 12.8366 61.4276 12.7934 61.2483C12.7537 61.0708 12.6817 60.9441 12.5773 60.8716C12.4764 60.7955 12.3341 60.7557 12.1522 60.7557C12.0028 60.7557 11.8533 60.7901 11.7056 60.8571C11.5616 60.9205 11.4193 61.0147 11.2806 61.1396C11.1456 61.2664 11.0087 61.4185 10.87 61.596V66.761H8.68018Z" fill="#1DDF8C"/>
<path d="M21.4661 59.3721V65.2614H23.339V66.7609H17.2017V65.2614H19.2835V60.8788H17.2737V59.3721H21.4661ZM20.1479 55.511C20.5261 55.511 20.8358 55.6306 21.0771 55.866C21.3166 56.1032 21.4373 56.3984 21.4373 56.7498C21.4373 57.1029 21.3166 57.3981 21.0771 57.6335C20.8358 57.8708 20.5261 57.9885 20.1479 57.9885C19.7625 57.9885 19.4509 57.8708 19.2114 57.6335C18.9701 57.3981 18.8513 57.1029 18.8513 56.7498C18.8513 56.3984 18.9701 56.1032 19.2114 55.866C19.4509 55.6306 19.7625 55.511 20.1479 55.511Z" fill="#1DDF8C"/>
<path d="M30.3051 64.3197H26.5377L25.7813 66.7609H24.5928L27.6903 57.1844H29.2318L32.3293 66.7609H31.0687L30.3051 64.3197ZM26.8475 63.32H29.9954L28.4322 58.1985L26.8475 63.32Z" fill="#1DDF8C"/>
<path d="M40.073 59.4373L37.4221 66.761H36.0751L33.4458 59.4373H34.6776L36.7882 65.6961L38.87 59.4373H40.073Z" fill="#1DDF8C"/>
<path d="M47.5141 65.1601C47.5141 65.4553 47.5609 65.6708 47.6582 65.8048C47.7536 65.9352 47.9031 66.0348 48.1048 66.1018L47.8239 66.9204C47.5105 66.8769 47.2368 66.7755 47.0027 66.6161C46.7667 66.4568 46.5957 66.2159 46.4912 65.8917C46.2265 66.2304 45.8969 66.4857 45.5043 66.6596C45.1153 66.8334 44.6831 66.9204 44.2077 66.9204C43.4766 66.9204 42.9039 66.7157 42.4861 66.3046C42.0683 65.8899 41.8594 65.3412 41.8594 64.6602C41.8594 63.9069 42.1493 63.331 42.731 62.9289C43.3163 62.5233 44.1645 62.3204 45.2738 62.3204H46.3471V61.7047C46.3471 61.1795 46.1923 60.8046 45.8861 60.5819C45.5782 60.3609 45.1532 60.2487 44.6111 60.2487C44.3698 60.2487 44.0871 60.2776 43.7611 60.3356C43.4387 60.3935 43.0912 60.4913 42.7166 60.6254L42.4068 59.7416C42.8535 59.5786 43.2731 59.4627 43.6674 59.3939C44.06 59.3214 44.4346 59.2852 44.7912 59.2852C45.6988 59.2852 46.3778 59.4989 46.8298 59.9227C47.2854 60.3483 47.5141 60.9224 47.5141 61.6468V65.1601ZM44.5031 66.0294C44.8632 66.0294 45.2054 65.9388 45.5331 65.7541C45.8591 65.5712 46.131 65.3176 46.3471 64.9935V63.11H45.2954C44.4922 63.11 43.9268 63.2513 43.5954 63.5302C43.2641 63.8055 43.0984 64.1785 43.0984 64.6458C43.0984 65.1003 43.2136 65.4462 43.4441 65.6816C43.6783 65.9135 44.0312 66.0294 44.5031 66.0294Z" fill="#1DDF8C"/>
<path d="M53.4352 56.489V64.95C53.4352 65.3122 53.545 65.5711 53.7666 65.7251C53.9917 65.8754 54.2816 65.9496 54.6382 65.9496C54.8579 65.9496 55.0668 65.9261 55.2649 65.8772C55.4612 65.8301 55.6611 65.7667 55.8628 65.6889L56.1725 66.5436C55.9708 66.6414 55.7223 66.7284 55.4306 66.8044C55.1424 66.8805 54.8129 66.9203 54.4437 66.9203C53.7954 66.9203 53.2695 66.7429 52.8661 66.3843C52.4663 66.0221 52.2682 65.5259 52.2682 64.892V57.4162H50.0352V56.489H53.4352Z" fill="#1DDF8C"/>
<path d="M62.5839 59.4373V65.8337H64.6369V66.7609H59.1694V65.8337H61.4169V60.3645H59.2415V59.4373H62.5839ZM61.6546 56.0109C61.914 56.0109 62.1193 56.0905 62.2741 56.2499C62.4272 56.4057 62.5046 56.5958 62.5046 56.8222C62.5046 57.0594 62.4272 57.2568 62.2741 57.4162C62.1193 57.5756 61.914 57.6552 61.6546 57.6552C61.4097 57.6552 61.208 57.5756 61.0495 57.4162C60.8947 57.2568 60.819 57.0594 60.819 56.8222C60.819 56.5958 60.8947 56.4057 61.0495 56.2499C61.208 56.0905 61.4097 56.0109 61.6546 56.0109Z" fill="#1DDF8C"/>
<path d="M72.4091 65.1601C72.4091 65.4553 72.4559 65.6708 72.5532 65.8048C72.6486 65.9352 72.7981 66.0348 72.9998 66.1018L72.7189 66.9204C72.4055 66.8769 72.1318 66.7755 71.8977 66.6161C71.6618 66.4568 71.4907 66.2159 71.3862 65.8917C71.1215 66.2304 70.7919 66.4857 70.3994 66.6596C70.0104 66.8334 69.5782 66.9204 69.1027 66.9204C68.3716 66.9204 67.7989 66.7157 67.3811 66.3046C66.9633 65.8899 66.7544 65.3412 66.7544 64.6602C66.7544 63.9069 67.0443 63.331 67.626 62.9289C68.2113 62.5233 69.0595 62.3204 70.1688 62.3204H71.2422V61.7047C71.2422 61.1795 71.0873 60.8046 70.7811 60.5819C70.4732 60.3609 70.0482 60.2487 69.5061 60.2487C69.2648 60.2487 68.9821 60.2776 68.6561 60.3356C68.3338 60.3935 67.9862 60.4913 67.6116 60.6254L67.3019 59.7416C67.7485 59.5786 68.1681 59.4627 68.5625 59.3939C68.9551 59.3214 69.3296 59.2852 69.6862 59.2852C70.5938 59.2852 71.2728 59.4989 71.7248 59.9227C72.1804 60.3483 72.4091 60.9224 72.4091 61.6468V65.1601ZM69.3981 66.0294C69.7582 66.0294 70.1004 65.9388 70.4282 65.7541C70.7541 65.5712 71.0261 65.3176 71.2422 64.9935V63.11H70.1905C69.3873 63.11 68.8218 63.2513 68.4904 63.5302C68.1591 63.8055 67.9934 64.1785 67.9934 64.6458C67.9934 65.1003 68.1086 65.4462 68.3392 65.6816C68.5733 65.9135 68.9262 66.0294 69.3981 66.0294Z" fill="#1DDF8C"/>
</svg>
