<svg width="50" height="50" viewBox="0 0 50 50" fill="none" xmlns="http://www.w3.org/2000/svg">
<mask id="mask0_139_1837" style="mask-type:luminance" maskUnits="userSpaceOnUse" x="0" y="0" width="50" height="50">
<path d="M0 0H50V50H0V0Z" fill="white"/>
</mask>
<g mask="url(#mask0_139_1837)">
<mask id="mask1_139_1837" style="mask-type:luminance" maskUnits="userSpaceOnUse" x="0" y="0" width="50" height="50">
<path d="M7.66667 0H42.3333C44.3663 0 46.316 0.809028 47.7552 2.24653C49.1927 3.68403 50 5.63368 50 7.66667V42.3333C50 44.3663 49.1927 46.3177 47.7552 47.7552C46.316 49.1927 44.3663 50 42.3333 50H7.66667C5.63368 50 3.68403 49.1927 2.24479 47.7552C0.807292 46.3177 0 44.3663 0 42.3333V7.66667C0 5.63368 0.807292 3.68403 2.24479 2.24653C3.68403 0.809028 5.63368 0 7.66667 0Z" fill="white"/>
</mask>
<g mask="url(#mask1_139_1837)">
<path d="M0 0H50V50H0V0Z" fill="#1DDF8C"/>
</g>
</g>
<mask id="mask2_139_1837" style="mask-type:luminance" maskUnits="userSpaceOnUse" x="5" y="13" width="40" height="14">
<path d="M5.85596 13.599H44.1233V26.1007H5.85596V13.599Z" fill="white"/>
</mask>
<g mask="url(#mask2_139_1837)">
<mask id="mask3_139_1837" style="mask-type:luminance" maskUnits="userSpaceOnUse" x="5" y="13" width="40" height="14">
<path d="M26.5869 13.8524L43.7257 19.3403C43.948 19.4115 44.0973 19.6181 44.0973 19.849C44.0973 20.0816 43.948 20.2865 43.7257 20.3576L26.5869 25.8455C25.5556 26.1771 24.4445 26.1771 23.4132 25.8455L6.27436 20.3576C6.05214 20.2865 5.90283 20.0816 5.90283 19.849C5.90283 19.6181 6.05214 19.4115 6.27436 19.3403L23.4132 13.8524C24.4445 13.5226 25.5556 13.5226 26.5869 13.8524Z" fill="white"/>
</mask>
<g mask="url(#mask3_139_1837)">
<path d="M4.68604 13.3438H45.2919V26.3542H4.68604V13.3438Z" fill="white"/>
</g>
</g>
<mask id="mask4_139_1837" style="mask-type:luminance" maskUnits="userSpaceOnUse" x="11" y="23" width="16" height="16">
<path d="M11.8887 23.7587H26.9998V38.8698H11.8887V23.7587Z" fill="white"/>
</mask>
<g mask="url(#mask4_139_1837)">
<mask id="mask5_139_1837" style="mask-type:luminance" maskUnits="userSpaceOnUse" x="6" y="18" width="22" height="22">
<path d="M27.0171 28.9722L15.7584 39.1632L6.70459 29.1615L17.9633 18.9705L27.0171 28.9722Z" fill="white"/>
</mask>
<g mask="url(#mask5_139_1837)">
<mask id="mask6_139_1837" style="mask-type:luminance" maskUnits="userSpaceOnUse" x="12" y="23" width="15" height="16">
<path d="M12.057 24.974L14.9164 37.974C14.9911 38.3108 15.2376 38.5834 15.5675 38.6875C15.8956 38.7917 16.255 38.7153 16.5102 38.4827L26.2827 29.6354C26.5397 29.4045 26.6525 29.0556 26.5796 28.717C26.5084 28.3802 26.2619 28.1077 25.9355 28L13.2827 23.8629C12.9581 23.757 12.6004 23.8334 12.347 24.0625C12.0935 24.2917 11.9824 24.6389 12.057 24.974Z" fill="white"/>
</mask>
<g mask="url(#mask6_139_1837)">
<path d="M27.5187 28.5174L15.2565 39.6181L5.55859 28.9045L17.8207 17.8038L27.5187 28.5174Z" fill="white"/>
</g>
</g>
</g>
<mask id="mask7_139_1837" style="mask-type:luminance" maskUnits="userSpaceOnUse" x="23" y="23" width="16" height="16">
<path d="M23 23.7587H38.1111V38.8698H23V23.7587Z" fill="white"/>
</mask>
<g mask="url(#mask7_139_1837)">
<mask id="mask8_139_1837" style="mask-type:luminance" maskUnits="userSpaceOnUse" x="22" y="18" width="22" height="22">
<path d="M34.2467 39.1389L22.896 29.0486L31.8613 18.9636L43.212 29.0538L34.2467 39.1389Z" fill="white"/>
</mask>
<g mask="url(#mask8_139_1837)">
<mask id="mask9_139_1837" style="mask-type:luminance" maskUnits="userSpaceOnUse" x="23" y="23" width="15" height="16">
<path d="M36.6046 23.8316L23.9882 28.0816C23.6619 28.1927 23.4188 28.4688 23.3494 28.8056C23.2799 29.1441 23.3962 29.4931 23.6549 29.7222L33.5073 38.4809C33.766 38.7101 34.1254 38.7847 34.4535 38.6771C34.7799 38.5695 35.0264 38.2952 35.0959 37.9584L37.8407 24.9306C37.9101 24.5972 37.7973 24.25 37.5403 24.0226C37.2851 23.7952 36.9275 23.7222 36.6046 23.8316Z" fill="white"/>
</mask>
<g mask="url(#mask9_139_1837)">
<path d="M34.754 39.5886L22.3911 28.599L31.9935 17.7969L44.3564 28.7865L34.754 39.5886Z" fill="white"/>
</g>
</g>
</g>
<mask id="mask10_139_1837" style="mask-type:luminance" maskUnits="userSpaceOnUse" x="15" y="28" width="20" height="12">
<path d="M15.6895 28.684H34.2971V39.1371H15.6895V28.684Z" fill="white"/>
</mask>
<g mask="url(#mask10_139_1837)">
<mask id="mask11_139_1837" style="mask-type:luminance" maskUnits="userSpaceOnUse" x="15" y="28" width="20" height="12">
<path d="M23.8666 29.217L15.91 37.868C15.7139 38.0816 15.6618 38.3906 15.7781 38.6562C15.8962 38.9236 16.1583 39.0937 16.4482 39.0937H33.542C33.8319 39.0937 34.0958 38.9236 34.2121 38.6562C34.3284 38.3906 34.2764 38.0816 34.0802 37.868L26.1236 29.217C25.8337 28.901 25.4239 28.7222 24.9951 28.7222C24.5663 28.7222 24.1583 28.901 23.8666 29.217Z" fill="white"/>
</mask>
<g mask="url(#mask11_139_1837)">
<path d="M35.2089 39.0937H14.7783V27.9895H35.2089V39.0937Z" fill="white"/>
</g>
</g>
<path d="M41.4585 28.1423V20.6319" stroke="white" stroke-width="2"/>
<mask id="mask12_139_1837" style="mask-type:luminance" maskUnits="userSpaceOnUse" x="40" y="27" width="3" height="5">
<path d="M40.2676 27.9861H42.653V31.6302H40.2676V27.9861Z" fill="white"/>
</mask>
<g mask="url(#mask12_139_1837)">
<mask id="mask13_139_1837" style="mask-type:luminance" maskUnits="userSpaceOnUse" x="40" y="27" width="3" height="5">
<path d="M40.2676 29.5659C40.2676 29.526 40.2676 29.4861 40.2676 29.4461C40.3075 29.1302 40.4412 28.9305 40.6582 28.8402C40.6287 28.3125 41.0384 27.9271 41.4412 28.1614C41.5263 28.0833 41.6217 28.0191 41.7485 27.9948C41.7849 27.9948 41.8214 27.9948 41.8579 27.9948C42.1808 28.0659 42.3995 28.3663 42.3405 28.8611C42.5072 28.9878 42.6721 29.2135 42.6513 29.5659C42.6408 29.7482 42.5783 29.875 42.502 29.9861C42.5645 30.1024 42.6148 30.2291 42.6148 30.4114C42.6165 30.835 42.37 31.118 42.0332 31.125C41.9551 31.3958 41.8075 31.5816 41.5558 31.6302C41.5193 31.6302 41.4829 31.6302 41.4464 31.6302C41.1981 31.5764 41.0401 31.401 40.9742 31.1111C40.554 31.1284 40.2901 30.5486 40.4759 30.0729C40.3839 29.96 40.2832 29.7986 40.2676 29.5659Z" fill="white"/>
</mask>
<g mask="url(#mask13_139_1837)">
<path d="M40.2676 31.6302V27.9965H42.653V31.6302H40.2676Z" fill="white"/>
</g>
</g>
</svg>
