<svg width="46" height="48" viewBox="0 0 46 48" fill="none" xmlns="http://www.w3.org/2000/svg">
<rect x="0.823486" width="45.0768" height="48" rx="15" fill="#0F5EFE"/>
<mask id="mask0_4_58" style="mask-type:alpha" maskUnits="userSpaceOnUse" x="9" y="9" width="30" height="31">
<path d="M9.27539 11.7927C9.27539 10.2503 10.5257 9 12.0681 9H35.2191C36.7615 9 38.0119 10.2503 38.0119 11.7927V25.3518C38.0119 33.2871 31.579 39.72 23.6436 39.72C15.7083 39.72 9.27539 33.2871 9.27539 25.3518V11.7927Z" fill="#D9D9D9"/>
</mask>
<g mask="url(#mask0_4_58)">
<path d="M23.362 9.96004C23.362 17.7141 17.4841 24 10.2334 24C2.98262 24 -2.89526 17.7141 -2.89526 9.96004C-2.89526 2.20597 2.98262 -4.07996 10.2334 -4.07996C17.4841 -4.07996 23.362 2.20597 23.362 9.96004Z" fill="white" fill-opacity="0.5"/>
<path d="M49.9572 9.96004C49.9572 17.7141 44.0793 24 36.8286 24C29.5778 24 23.7 17.7141 23.7 9.96004C23.7 2.20597 29.5778 -4.07996 36.8286 -4.07996C44.0793 -4.07996 49.9572 2.20597 49.9572 9.96004Z" fill="white" fill-opacity="0.3"/>
<path d="M49.8446 38.28C49.8446 46.0341 43.9668 52.32 36.716 52.32C29.4653 52.32 23.5874 46.0341 23.5874 38.28C23.5874 30.5259 29.4653 24.24 36.716 24.24C43.9668 24.24 49.8446 30.5259 49.8446 38.28Z" fill="white"/>
<path d="M23.0238 38.28C23.0238 46.0341 17.146 52.32 9.89522 52.32C2.64449 52.32 -3.2334 46.0341 -3.2334 38.28C-3.2334 30.5259 2.64449 24.24 9.89522 24.24C17.146 24.24 23.0238 30.5259 23.0238 38.28Z" fill="white" fill-opacity="0.7"/>
</g>
</svg>
