<svg width="50" height="50" viewBox="0 0 50 50" fill="none" xmlns="http://www.w3.org/2000/svg">
<mask id="mask0_117_3580" style="mask-type:luminance" maskUnits="userSpaceOnUse" x="0" y="0" width="50" height="50">
<path d="M0 0H50V50H0V0Z" fill="white"/>
</mask>
<g mask="url(#mask0_117_3580)">
<mask id="mask1_117_3580" style="mask-type:luminance" maskUnits="userSpaceOnUse" x="0" y="0" width="50" height="50">
<path d="M7.66667 0H42.3333C44.3663 0 46.316 0.809028 47.7552 2.24653C49.1927 3.68403 50 5.63368 50 7.66667V42.3333C50 44.3663 49.1927 46.3177 47.7552 47.7552C46.316 49.1927 44.3663 50 42.3333 50H7.66667C5.63368 50 3.68403 49.1927 2.24479 47.7552C0.807292 46.3177 0 44.3663 0 42.3333V7.66667C0 5.63368 0.807292 3.68403 2.24479 2.24653C3.68403 0.809028 5.63368 0 7.66667 0Z" fill="white"/>
</mask>
<g mask="url(#mask1_117_3580)">
<path d="M0 0H50V50H0V0Z" fill="#1DDF8C"/>
</g>
</g>
<mask id="mask2_117_3580" style="mask-type:luminance" maskUnits="userSpaceOnUse" x="5" y="13" width="40" height="14">
<path d="M5.85547 13.5989H44.1228V26.1006H5.85547V13.5989Z" fill="white"/>
</mask>
<g mask="url(#mask2_117_3580)">
<mask id="mask3_117_3580" style="mask-type:luminance" maskUnits="userSpaceOnUse" x="5" y="13" width="40" height="14">
<path d="M26.5864 13.8524L43.7253 19.3402C43.9475 19.4114 44.0968 19.618 44.0968 19.8489C44.0968 20.0815 43.9475 20.2864 43.7253 20.3576L26.5864 25.8454C25.5551 26.177 24.444 26.177 23.4128 25.8454L6.27387 20.3576C6.05165 20.2864 5.90234 20.0815 5.90234 19.8489C5.90234 19.618 6.05165 19.4114 6.27387 19.3402L23.4128 13.8524C24.444 13.5225 25.5551 13.5225 26.5864 13.8524Z" fill="white"/>
</mask>
<g mask="url(#mask3_117_3580)">
<path d="M4.68555 13.3438H45.2915V26.3542H4.68555V13.3438Z" fill="white"/>
</g>
</g>
<mask id="mask4_117_3580" style="mask-type:luminance" maskUnits="userSpaceOnUse" x="11" y="23" width="16" height="16">
<path d="M11.8887 23.7588H26.9998V38.8699H11.8887V23.7588Z" fill="white"/>
</mask>
<g mask="url(#mask4_117_3580)">
<mask id="mask5_117_3580" style="mask-type:luminance" maskUnits="userSpaceOnUse" x="6" y="18" width="22" height="22">
<path d="M27.0176 28.9724L15.7589 39.1634L6.70508 29.1617L17.9638 18.9707L27.0176 28.9724Z" fill="white"/>
</mask>
<g mask="url(#mask5_117_3580)">
<mask id="mask6_117_3580" style="mask-type:luminance" maskUnits="userSpaceOnUse" x="12" y="23" width="15" height="16">
<path d="M12.057 24.9742L14.9164 37.9742C14.9911 38.311 15.2376 38.5835 15.5675 38.6877C15.8956 38.7919 16.255 38.7155 16.5102 38.4828L26.2827 29.6356C26.5397 29.4047 26.6525 29.0558 26.5796 28.7172C26.5084 28.3804 26.2619 28.1078 25.9355 28.0002L13.2827 23.8631C12.9581 23.7572 12.6004 23.8335 12.347 24.0627C12.0935 24.2919 11.9824 24.6391 12.057 24.9742Z" fill="white"/>
</mask>
<g mask="url(#mask6_117_3580)">
<path d="M27.5187 28.5175L15.2565 39.6182L5.55859 28.9046L17.8207 17.804L27.5187 28.5175Z" fill="white"/>
</g>
</g>
</g>
<mask id="mask7_117_3580" style="mask-type:luminance" maskUnits="userSpaceOnUse" x="23" y="23" width="16" height="16">
<path d="M23 23.7588H38.1111V38.8699H23V23.7588Z" fill="white"/>
</mask>
<g mask="url(#mask7_117_3580)">
<mask id="mask8_117_3580" style="mask-type:luminance" maskUnits="userSpaceOnUse" x="22" y="18" width="22" height="22">
<path d="M34.2462 39.139L22.8955 29.0487L31.8608 18.9636L43.2115 29.0539L34.2462 39.139Z" fill="white"/>
</mask>
<g mask="url(#mask8_117_3580)">
<mask id="mask9_117_3580" style="mask-type:luminance" maskUnits="userSpaceOnUse" x="23" y="23" width="15" height="16">
<path d="M36.6041 23.8317L23.9878 28.0817C23.6614 28.1928 23.4183 28.4689 23.3489 28.8057C23.2794 29.1442 23.3957 29.4932 23.6544 29.7224L33.5069 38.481C33.7655 38.7102 34.1249 38.7849 34.453 38.6772C34.7794 38.5696 35.0259 38.2953 35.0954 37.9585L37.8402 24.9307C37.9096 24.5974 37.7968 24.2501 37.5398 24.0227C37.2846 23.7953 36.927 23.7224 36.6041 23.8317Z" fill="white"/>
</mask>
<g mask="url(#mask9_117_3580)">
<path d="M34.7535 39.5888L22.3906 28.5992L31.9931 17.7971L44.3559 28.7867L34.7535 39.5888Z" fill="white"/>
</g>
</g>
</g>
<mask id="mask10_117_3580" style="mask-type:luminance" maskUnits="userSpaceOnUse" x="15" y="28" width="20" height="12">
<path d="M15.6895 28.6841H34.2971V39.1372H15.6895V28.6841Z" fill="white"/>
</mask>
<g mask="url(#mask10_117_3580)">
<mask id="mask11_117_3580" style="mask-type:luminance" maskUnits="userSpaceOnUse" x="15" y="28" width="20" height="12">
<path d="M23.8666 29.217L15.91 37.868C15.7139 38.0815 15.6618 38.3906 15.7781 38.6562C15.8962 38.9236 16.1583 39.0937 16.4482 39.0937H33.542C33.8319 39.0937 34.0958 38.9236 34.2121 38.6562C34.3284 38.3906 34.2764 38.0815 34.0802 37.868L26.1236 29.217C25.8337 28.901 25.4239 28.7222 24.9951 28.7222C24.5663 28.7222 24.1583 28.901 23.8666 29.217Z" fill="white"/>
</mask>
<g mask="url(#mask11_117_3580)">
<path d="M35.2089 39.0937H14.7783V27.9895H35.2089V39.0937Z" fill="white"/>
</g>
</g>
<path d="M41.458 28.1423V20.6319" stroke="white" stroke-width="2"/>
<mask id="mask12_117_3580" style="mask-type:luminance" maskUnits="userSpaceOnUse" x="40" y="27" width="3" height="5">
<path d="M40.2676 27.9861H42.653V31.6302H40.2676V27.9861Z" fill="white"/>
</mask>
<g mask="url(#mask12_117_3580)">
<mask id="mask13_117_3580" style="mask-type:luminance" maskUnits="userSpaceOnUse" x="40" y="27" width="3" height="5">
<path d="M40.2676 29.5661C40.2676 29.5261 40.2676 29.4862 40.2676 29.4463C40.3075 29.1303 40.4412 28.9306 40.6582 28.8404C40.6287 28.3126 41.0384 27.9272 41.4412 28.1615C41.5263 28.0834 41.6217 28.0192 41.7485 27.9949C41.7849 27.9949 41.8214 27.9949 41.8579 27.9949C42.1808 28.0661 42.3995 28.3664 42.3405 28.8612C42.5072 28.9879 42.6721 29.2136 42.6513 29.5661C42.6408 29.7483 42.5783 29.8751 42.502 29.9862C42.5645 30.1025 42.6148 30.2292 42.6148 30.4115C42.6165 30.8352 42.37 31.1181 42.0332 31.1251C41.9551 31.3959 41.8075 31.5817 41.5558 31.6303C41.5193 31.6303 41.4829 31.6303 41.4464 31.6303C41.1981 31.5765 41.0401 31.4011 40.9742 31.1112C40.554 31.1286 40.2901 30.5487 40.4759 30.073C40.3839 29.9602 40.2832 29.7987 40.2676 29.5661Z" fill="white"/>
</mask>
<g mask="url(#mask13_117_3580)">
<path d="M40.2676 31.6303V27.9966H42.653V31.6303H40.2676Z" fill="white"/>
</g>
</g>
</svg>
