<svg width="24" height="24" viewBox="0 0 24 24" fill="none" xmlns="http://www.w3.org/2000/svg">
<path d="M17.4401 9.33006H16.3401V6.40006C16.3401 5.24902 15.8828 4.14512 15.0689 3.33122C14.255 2.51731 13.1511 2.06006 12.0001 2.06006C10.849 2.06006 9.74512 2.51731 8.93121 3.33122C8.11731 4.14512 7.66006 5.24902 7.66006 6.40006V9.33006H6.56006C5.89702 9.33006 5.26113 9.59345 4.79229 10.0623C4.32345 10.5311 4.06006 11.167 4.06006 11.8301V19.4401C4.06191 20.1025 4.32589 20.7373 4.79433 21.2058C5.26277 21.6742 5.89759 21.9382 6.56006 21.9401H17.4401C18.1025 21.9382 18.7373 21.6742 19.2058 21.2058C19.6742 20.7373 19.9382 20.1025 19.9401 19.4401V11.8301C19.9401 11.167 19.6767 10.5311 19.2078 10.0623C18.739 9.59345 18.1031 9.33006 17.4401 9.33006ZM8.66006 6.40006C8.66006 5.51424 9.01195 4.66469 9.63832 4.03832C10.2647 3.41195 11.1142 3.06006 12.0001 3.06006C12.8859 3.06006 13.7354 3.41195 14.3618 4.03832C14.9882 4.66469 15.3401 5.51424 15.3401 6.40006V9.33006H8.66006V6.40006ZM18.9401 19.4401C18.9372 19.837 18.7782 20.2169 18.4975 20.4975C18.2169 20.7782 17.837 20.9372 17.4401 20.9401H6.56006C6.16312 20.9372 5.78326 20.7782 5.50258 20.4975C5.2219 20.2169 5.06294 19.837 5.06006 19.4401V11.8301C5.06006 11.4322 5.21809 11.0507 5.4994 10.7694C5.7807 10.4881 6.16223 10.3301 6.56006 10.3301H17.4401C17.8379 10.3301 18.2194 10.4881 18.5007 10.7694C18.782 11.0507 18.9401 11.4322 18.9401 11.8301V19.4401Z" fill="#0F5EFE"/>
<path d="M13 14.95C13.0006 15.1248 12.9546 15.2966 12.8667 15.4478C12.7788 15.5989 12.6522 15.724 12.5 15.81V17.31C12.5 17.4426 12.4473 17.5697 12.3536 17.6635C12.2598 17.7573 12.1326 17.81 12 17.81C11.8674 17.81 11.7402 17.7573 11.6465 17.6635C11.5527 17.5697 11.5 17.4426 11.5 17.31V15.81C11.3478 15.724 11.2212 15.5989 11.1333 15.4478C11.0454 15.2966 10.9994 15.1248 11 14.95C11 14.6847 11.1054 14.4304 11.2929 14.2428C11.4804 14.0553 11.7348 13.95 12 13.95C12.2652 13.95 12.5196 14.0553 12.7071 14.2428C12.8946 14.4304 13 14.6847 13 14.95Z" fill="#0F5EFE"/>
</svg>
